<?xml version="1.0" encoding="utf-8"?>
<!-- Generator: Adobe Illustrator 22.1.0, SVG Export Plug-In . SVG Version: 6.00 Build 0)  -->
<svg version="1.1" id="Слой_1" xmlns="http://www.w3.org/2000/svg" xmlns:xlink="http://www.w3.org/1999/xlink" x="0px" y="0px"
	 viewBox="0 0 512 512" style="enable-background:new 0 0 512 512;" xml:space="preserve">
<g>
	<path d="M373.7,397.1L114.9,138.3c-3.1-3.1-3.1-8.2,0-11.3l12-12c3.1-3.1,8.2-3.1,11.3,0l258.8,258.8c3.1,3.1,3.1,8.2,0,11.3
		l-12,12C381.9,400.2,376.8,400.2,373.7,397.1z"/>
</g>
<g>
	<path d="M397.1,138.3L138.3,397.1c-3.1,3.1-8.2,3.1-11.3,0l-12-12c-3.1-3.1-3.1-8.2,0-11.3l258.8-258.8c3.1-3.1,8.2-3.1,11.3,0
		l12,12C400.2,130.1,400.2,135.2,397.1,138.3z"/>
</g>
</svg>
