<?xml version="1.0" encoding="utf-8"?>
<!-- Generator: Adobe Illustrator 22.0.1, SVG Export Plug-In . SVG Version: 6.00 Build 0)  -->
<svg version="1.1" id="Слой_1" xmlns="http://www.w3.org/2000/svg" xmlns:xlink="http://www.w3.org/1999/xlink" x="0px" y="0px"
	 viewBox="0 0 512 512" style="enable-background:new 0 0 512 512;" xml:space="preserve">
<g>
	<path d="M439,167.5H73c-4.4,0-8-3.6-8-8v-17c0-4.4,3.6-8,8-8h366c4.4,0,8,3.6,8,8v17C447,163.9,443.4,167.5,439,167.5z"/>
</g>
<g>
	<path d="M439,272.5H73c-4.4,0-8-3.6-8-8v-17c0-4.4,3.6-8,8-8h366c4.4,0,8,3.6,8,8v17C447,268.9,443.4,272.5,439,272.5z"/>
</g>
<g>
	<path d="M439,377.5H73c-4.4,0-8-3.6-8-8v-17c0-4.4,3.6-8,8-8h366c4.4,0,8,3.6,8,8v17C447,373.9,443.4,377.5,439,377.5z"/>
</g>
</svg>
