<?xml version="1.0" encoding="utf-8"?>
<!-- Generator: Adobe Illustrator 22.0.1, SVG Export Plug-In . SVG Version: 6.00 Build 0)  -->
<svg version="1.1" xmlns="http://www.w3.org/2000/svg" xmlns:xlink="http://www.w3.org/1999/xlink" x="0px" y="0px"
	 viewBox="0 0 512 512" style="enable-background:new 0 0 512 512;" xml:space="preserve">
<style type="text/css">
	.st0{display:none;fill:#49B462;}
	.st1{fill:#49B462;}
	.st2{fill:#F8DB3D;stroke:#F8DB3D;stroke-width:8;stroke-miterlimit:10;}
	.st3{fill:#F8DB3D;}
</style>
<g id="Слой_1">
	<path id="Shape" class="st0" d="M387.3,56.7l-128-56c-2.2-0.9-4.7-0.9-6.8,0l-128,56c-3.1,1.4-5.1,4.4-5.1,7.8v134
		c0,30.1,14.5,58.4,38.9,76l88.5,63.8c5.5,4,12.8,4,18.3,0l88.5-63.8c24.4-17.6,38.9-45.9,38.9-76v-134
		C392.4,61.2,390.4,58.1,387.3,56.7z M375.4,198.5c0,24.6-11.9,47.7-31.8,62.2l-87.6,63.2l-87.6-63.2c-20-14.4-31.8-37.5-31.8-62.2
		V70.1l119.5-52.3l119.5,52.3V198.5z"/>
	<path id="Shape_2_" class="st1" d="M70.6,283.3l-18.5-43.1c-3.9-8.9-12.3-15-22-16.1s-19.1,3.1-24.9,11s-6.9,18.2-2.9,27l33.4,73.6
		c4.5,10,10.8,19,18.5,26.7l52.6,52.6c-3,3.1-4.6,7.3-4.6,11.6v68.3c0,9.4,7.6,17.1,17.1,17.1h93.9c9.4,0,17.1-7.6,17.1-17.1v-68.3
		c0-9.4-7.6-17.1-17.1-17.1v-15.9c0.3-20.2-6.3-39.9-18.7-55.9c-7.3-9.5-17.1-16.8-28.4-20.7c-18-7.6-34.5-18.2-48.9-31.4
		C103.9,274.8,85,273.8,70.6,283.3z M213.2,494.9h-93.9v-68.3h93.9V494.9z M181.2,348.5c9.9,13,15.2,28.9,15,45.2v15.9h-70.6
		l-59.2-59.2c-6.3-6.3-11.4-13.6-15.1-21.7l-33.4-73.6c-1.4-3.1-1.2-6.8,0.7-9.7c1.9-2.9,5.1-4.7,8.5-4.7c4.1,0,7.7,2.4,9.3,6.2
		l19.1,44.5c5.1,11.9,12.4,22.7,21.5,31.8l39,39c2.1,2.2,5.3,3.1,8.3,2.3c3-0.8,5.3-3.1,6.1-6.1c0.8-3-0.1-6.2-2.3-8.3l-39-39
		c-3.9-3.9-7.4-8.2-10.5-12.8c8.2-6.3,19.7-6.1,27.6,0.5c16,14.6,34.4,26.3,54.4,34.5C168.9,336.2,176,341.5,181.2,348.5z"/>
	<path id="Shape_3_" class="st1" d="M187.6,452.3h-8.5c-4.7,0-8.5,3.8-8.5,8.5s3.8,8.5,8.5,8.5h8.5c4.7,0,8.5-3.8,8.5-8.5
		S192.4,452.3,187.6,452.3z"/>
	<path id="Shape_4_" class="st1" d="M476,335.7l33.4-73.6c4.1-8.9,3.1-19.4-2.7-27.3c-5.8-8-15.4-12.2-25.1-11.1s-18.2,7.4-22,16.4
		l-18.4,43c-14.4-9.5-33.4-8.4-46.7,2.6c-14.4,13.2-30.9,23.8-48.9,31.4c-11.3,4-21.2,11.2-28.4,20.7c-12.4,16-19,35.7-18.7,55.9
		v15.9c-9.4,0-17.1,7.6-17.1,17.1v68.3c0,9.4,7.6,17.1,17.1,17.1h93.9c9.4,0,17.1-7.6,17.1-17.1v-68.3c0-4.3-1.7-8.5-4.6-11.6
		l52.6-52.6C465.2,354.7,471.5,345.7,476,335.7z M392.4,494.9h-93.9v-68.3h93.9V494.9z M386.2,409.6h-70.6v-15.9
		c-0.3-16.3,5-32.3,15-45.2c5.2-6.9,12.3-12.2,20.5-15.2c20.1-8.2,38.5-19.8,54.5-34.5c8-6.6,19.5-6.8,27.7-0.5
		c-3.1,4.6-6.6,9-10.6,12.9l-39,39c-3.2,3.3-3.2,8.7,0.1,12c3.3,3.3,8.6,3.3,12,0.1l39-39c9.1-9.1,16.5-19.9,21.5-31.8l19.1-44.5
		c1.6-3.7,5.3-6.1,9.3-6.1c3.4,0,6.7,1.8,8.5,4.7s2.1,6.6,0.7,9.7l-33.4,73.6c-3.7,8.1-8.8,15.5-15.1,21.7L386.2,409.6z"/>
	<path id="Shape_5_" class="st1" d="M332.7,452.3h-8.5c-4.7,0-8.5,3.8-8.5,8.5s3.8,8.5,8.5,8.5h8.5c4.7,0,8.5-3.8,8.5-8.5
		S337.4,452.3,332.7,452.3z"/>
	<path class="st1" d="M256,318c-4.1,0-8-1.5-11.1-4.2c-11.6-10.2-22.8-19.7-32.7-28.1l-0.1,0c-29-24.7-54-46-71.4-67.1
		c-19.5-23.5-28.5-45.8-28.5-70.1c0-23.6,8.1-45.5,22.8-61.4C149.9,70.9,170.3,62,192.5,62c16.6,0,31.8,5.3,45.2,15.6
		c6.8,5.2,12.9,11.6,18.3,19.1c5.4-7.5,11.5-13.9,18.3-19.1C287.7,67.3,302.9,62,319.5,62c22.2,0,42.7,8.9,57.6,25.1
		c14.7,16,22.8,37.8,22.8,61.4c0,24.3-9.1,46.6-28.5,70.1c-17.4,21-42.4,42.3-71.4,67.1c-9.9,8.4-21.1,18-32.8,28.2
		C264,316.5,260.1,318,256,318z M192.5,78.9c-17.5,0-33.5,7-45.2,19.6c-11.8,12.8-18.4,30.6-18.4,50c0,20.5,7.6,38.8,24.7,59.3
		c16.5,19.9,41,40.8,69.4,65l0.1,0c9.9,8.5,21.2,18,32.9,28.3c11.8-10.3,23-19.9,33-28.3c28.4-24.2,52.9-45.1,69.4-65
		c17.1-20.6,24.7-38.9,24.7-59.3c0-19.4-6.5-37.2-18.4-50c-11.7-12.7-27.7-19.6-45.2-19.6c-12.8,0-24.5,4.1-34.9,12.1
		c-9.2,7.1-15.7,16.2-19.5,22.5c-1.9,3.3-5.4,5.2-9.1,5.2s-7.2-1.9-9.1-5.2c-3.8-6.3-10.2-15.4-19.5-22.5
		C217,82.9,205.3,78.9,192.5,78.9z"/>
	<path class="st2" d="M256,262.5c-2.1,0-4.2-0.8-5.8-2.2c-6.1-5.3-11.9-10.3-17.1-14.7l0,0c-15.1-12.9-28.2-24-37.3-35
		c-10.2-12.3-14.9-23.9-14.9-36.6c0-12.3,4.2-23.7,11.9-32.1c7.8-8.4,18.5-13.1,30.1-13.1c8.7,0,16.6,2.7,23.6,8.2
		c3.5,2.7,6.7,6.1,9.5,10c2.8-3.9,6-7.2,9.5-10c7-5.4,14.9-8.2,23.6-8.2c11.6,0,22.3,4.6,30.1,13.1c7.7,8.3,11.9,19.7,11.9,32.1
		c0,12.7-4.7,24.3-14.9,36.6c-9.1,11-22.2,22.1-37.3,35c-5.2,4.4-11,9.4-17.1,14.7C260.2,261.7,258.1,262.5,256,262.5z M222.8,137.6
		c-9.1,0-17.5,3.6-23.6,10.2c-6.2,6.7-9.6,16-9.6,26.1c0,10.7,4,20.2,12.9,31c8.6,10.4,21.4,21.3,36.2,33.9l0,0
		c5.2,4.4,11.1,9.4,17.2,14.8c6.2-5.4,12-10.4,17.2-14.8c14.8-12.6,27.6-23.5,36.2-33.9c8.9-10.7,12.9-20.3,12.9-31
		c0-10.1-3.4-19.4-9.6-26.1c-6.1-6.6-14.5-10.2-23.6-10.2c-6.7,0-12.8,2.1-18.2,6.3c-4.8,3.7-8.2,8.5-10.2,11.8
		c-1,1.7-2.8,2.7-4.8,2.7c-2,0-3.8-1-4.8-2.7c-2-3.3-5.3-8-10.2-11.8C235.7,139.7,229.5,137.6,222.8,137.6z"/>
</g>
<g id="Слой_3">
	<path class="st3" d="M371.4,51c0,0,51.3-10.7,51.3-51c0,0,8,51,50.3,51c0,0-50.8,10.7-50.8,51.3C422.3,103,412.8,51,371.4,51z"/>
	<path class="st3" d="M17,119.6c0,0,45.2,26.5,72.3-3.4c0,0-28.3,43.2,3.1,71.6c0,0-44.9-26.2-72.1,4
		C19.8,192.3,47.7,147.3,17,119.6z"/>
</g>
</svg>
