<?xml version="1.0" encoding="utf-8"?>
<!-- Generator: Adobe Illustrator 22.0.1, SVG Export Plug-In . SVG Version: 6.00 Build 0)  -->
<svg version="1.1" id="Capa_1" xmlns="http://www.w3.org/2000/svg" xmlns:xlink="http://www.w3.org/1999/xlink" x="0px" y="0px"
	 viewBox="0 0 512 512" style="enable-background:new 0 0 512 512;" xml:space="preserve">
<style type="text/css">
	.st0{fill:#49B462;}
	.st1{fill:#F8DB3D;}
</style>
<path class="st0" d="M336,96c8.8,0,16-7.2,16-16V32c0-17.6-14.4-32-32-32H64C46.4,0,32,14.4,32,32v448c0,17.6,14.4,32,32,32h256
	c17.6,0,32-14.4,32-32v-80c0-8.8-7.2-16-16-16H64V96H336z M64,32h256v32H64V32z M320,416v64H64v-64H320z"/>
<path class="st1" d="M448,128H256c-17.6,0-32,14.4-32,32v128c0,17.6,14.4,32,32,32h32v16c0,5.5,2.9,10.7,7.6,13.6
	c2.6,1.6,5.5,2.4,8.4,2.4c2.5,0,4.9-0.6,7.2-1.7l60.6-30.3H448c17.6,0,32-14.4,32-32V160C480,142.4,465.6,128,448,128z M448,288h-80
	c-2.5,0-4.9,0.6-7.2,1.7L320,310.1V304c0-8.8-7.2-16-16-16h-48V160h192V288z"/>
<path class="st1" d="M320.6,208h-0.3c-8.8,0-15.8,7.2-15.8,16s7.3,16,16.2,16s16-7.2,16-16S329.5,208,320.6,208z"/>
<path class="st1" d="M384.6,208h-0.3c-8.8,0-15.8,7.2-15.8,16s7.3,16,16.2,16s16-7.2,16-16S393.5,208,384.6,208z"/>
</svg>
