<?xml version="1.0" encoding="iso-8859-1"?>
<!-- Generator: Adobe Illustrator 19.0.0, SVG Export Plug-In . SVG Version: 6.00 Build 0)  -->
<svg version="1.1" id="Capa_1" xmlns="http://www.w3.org/2000/svg" xmlns:xlink="http://www.w3.org/1999/xlink" x="0px" y="0px"
	 viewBox="0 0 448 448" style="enable-background:new 0 0 448 448;" xml:space="preserve">
<g>
	<g>
		<path d="M418.72,318.72c-34.688-3.168-68.448-12-100.32-26.24c-15.712-7.008-34.048-0.64-41.728,14.592l-31.584,62.752
			c-70.848-37.6-129.344-96.096-166.944-166.912l62.752-31.584c15.2-7.648,21.632-25.984,14.592-41.728
			C141.248,97.728,132.416,64,129.28,29.312C127.744,12.608,114.144,0,97.6,0H16C7.168,0,0,7.168,0,16
			c0,65.152,14.208,127.968,42.208,186.784c42.528,88.384,114.624,160.48,203.072,203.008C304.032,433.792,366.848,448,432,448
			c8.832,0,16-7.168,16-16v-81.6C448,333.856,435.392,320.256,418.72,318.72z M32.32,32.032l65.056,0.16
			c3.488,38.208,13.216,75.392,29.12,110.528l-62.144,31.328C44.96,128.832,34.208,81.216,32.32,32.032z M416,415.68
			c-49.184-1.92-96.832-12.672-142.016-32l31.36-61.952C340.416,337.408,377.6,347.136,416,350.4V415.68z"/>
	</g>
</g>
<g>
</g>
<g>
</g>
<g>
</g>
<g>
</g>
<g>
</g>
<g>
</g>
<g>
</g>
<g>
</g>
<g>
</g>
<g>
</g>
<g>
</g>
<g>
</g>
<g>
</g>
<g>
</g>
<g>
</g>
</svg>
