<?xml version="1.0" encoding="utf-8"?>
<!-- Generator: Adobe Illustrator 22.0.1, SVG Export Plug-In . SVG Version: 6.00 Build 0)  -->
<svg version="1.1" xmlns="http://www.w3.org/2000/svg" xmlns:xlink="http://www.w3.org/1999/xlink" x="0px" y="0px"
	 viewBox="0 0 512 512" style="enable-background:new 0 0 512 512;" xml:space="preserve">
<style type="text/css">
	.st0{fill:#49B462;}
	.st1{fill:#F8DB3D;}
	.st2{display:none;}
</style>
<g id="Слой_1">
	<path id="Shape" class="st0" d="M387.3,56.7l-128-56c-2.2-0.9-4.7-0.9-6.8,0l-128,56c-3.1,1.4-5.1,4.4-5.1,7.8v134
		c0,30.1,14.5,58.4,38.9,76l88.5,63.8c5.5,4,12.8,4,18.3,0l88.5-63.8c24.4-17.6,38.9-45.9,38.9-76v-134
		C392.4,61.2,390.4,58.1,387.3,56.7z M375.4,198.5c0,24.6-11.9,47.7-31.8,62.2l-87.6,63.2l-87.6-63.2c-20-14.4-31.8-37.5-31.8-62.2
		V70.1l119.5-52.3l119.5,52.3V198.5z"/>
	<path id="Shape_1_" class="st1" d="M252.5,38l-93.9,41.1c-3.1,1.4-5.1,4.4-5.1,7.8v111.7c0,19.1,9.2,37.1,24.7,48.3l72.7,52.4
		c3,2.1,7,2.1,10,0l72.7-52.4c15.5-11.2,24.7-29.2,24.7-48.3V86.9c0-3.4-2-6.5-5.1-7.8L259.3,38C257.1,37,254.7,37,252.5,38z
		 M341.2,92.5v106.1c0,13.7-6.6,26.5-17.7,34.5l-67.7,48.8L188.2,233c-11.1-8-17.6-20.8-17.7-34.5V92.5l85.3-37.4L341.2,92.5z"/>
	<path id="Shape_2_" class="st0" d="M70.6,283.3l-18.5-43.1c-3.9-8.9-12.3-15-22-16.1s-19.1,3.1-24.9,11s-6.9,18.2-2.9,27l33.4,73.6
		c4.5,10,10.8,19,18.5,26.7l52.6,52.6c-3,3.1-4.6,7.3-4.6,11.6v68.3c0,9.4,7.6,17.1,17.1,17.1h93.9c9.4,0,17.1-7.6,17.1-17.1v-68.3
		c0-9.4-7.6-17.1-17.1-17.1v-15.9c0.3-20.2-6.3-39.9-18.7-55.9c-7.3-9.5-17.1-16.8-28.4-20.7c-18-7.6-34.5-18.2-48.9-31.4
		C103.9,274.8,85,273.8,70.6,283.3z M213.2,494.9h-93.9v-68.3h93.9V494.9z M181.2,348.5c9.9,13,15.2,28.9,15,45.2v15.9h-70.6
		l-59.2-59.2c-6.3-6.3-11.4-13.6-15.1-21.7l-33.4-73.6c-1.4-3.1-1.2-6.8,0.7-9.7c1.9-2.9,5.1-4.7,8.5-4.7c4.1,0,7.7,2.4,9.3,6.2
		l19.1,44.5c5.1,11.9,12.4,22.7,21.5,31.8l39,39c2.1,2.2,5.3,3.1,8.3,2.3c3-0.8,5.3-3.1,6.1-6.1c0.8-3-0.1-6.2-2.3-8.3l-39-39
		c-3.9-3.9-7.4-8.2-10.5-12.8c8.2-6.3,19.7-6.1,27.6,0.5c16,14.6,34.4,26.3,54.4,34.5C168.9,336.2,176,341.5,181.2,348.5z"/>
	<path id="Shape_3_" class="st0" d="M187.6,452.3h-8.5c-4.7,0-8.5,3.8-8.5,8.5s3.8,8.5,8.5,8.5h8.5c4.7,0,8.5-3.8,8.5-8.5
		S192.4,452.3,187.6,452.3z"/>
	<path id="Shape_4_" class="st0" d="M476,335.7l33.4-73.6c4.1-8.9,3.1-19.4-2.7-27.3c-5.8-8-15.4-12.2-25.1-11.1s-18.2,7.4-22,16.4
		l-18.4,43c-14.4-9.5-33.4-8.4-46.7,2.6c-14.4,13.2-30.9,23.8-48.9,31.4c-11.3,4-21.2,11.2-28.4,20.7c-12.4,16-19,35.7-18.7,55.9
		v15.9c-9.4,0-17.1,7.6-17.1,17.1v68.3c0,9.4,7.6,17.1,17.1,17.1h93.9c9.4,0,17.1-7.6,17.1-17.1v-68.3c0-4.3-1.7-8.5-4.6-11.6
		l52.6-52.6C465.2,354.7,471.5,345.7,476,335.7z M392.4,494.9h-93.9v-68.3h93.9V494.9z M386.2,409.6h-70.6v-15.9
		c-0.3-16.3,5-32.3,15-45.2c5.2-6.9,12.3-12.2,20.5-15.2c20.1-8.2,38.5-19.8,54.5-34.5c8-6.6,19.5-6.8,27.7-0.5
		c-3.1,4.6-6.6,9-10.6,12.9l-39,39c-3.2,3.3-3.2,8.7,0.1,12c3.3,3.3,8.6,3.3,12,0.1l39-39c9.1-9.1,16.5-19.9,21.5-31.8l19.1-44.5
		c1.6-3.7,5.3-6.1,9.3-6.1c3.4,0,6.7,1.8,8.5,4.7s2.1,6.6,0.7,9.7l-33.4,73.6c-3.7,8.1-8.8,15.5-15.1,21.7L386.2,409.6z"/>
	<path id="Shape_5_" class="st0" d="M332.7,452.3h-8.5c-4.7,0-8.5,3.8-8.5,8.5s3.8,8.5,8.5,8.5h8.5c4.7,0,8.5-3.8,8.5-8.5
		S337.4,452.3,332.7,452.3z"/>
	<path id="Shape_6_" class="st2" d="M209.8,180.9c-3.8-2.8-9.1-2.1-11.9,1.7c-2.8,3.8-2.1,9.1,1.7,11.9l34.1,25.6
		c1.5,1.1,3.3,1.7,5.1,1.7c0.5,0,1,0,1.4-0.1c2.3-0.4,4.4-1.7,5.7-3.7l68.3-102.4c1.7-2.5,1.9-5.8,0.6-8.5c-1.4-2.7-4.1-4.5-7.1-4.7
		c-3-0.2-6,1.2-7.7,3.8l-63.3,94.9L209.8,180.9z"/>
</g>
<g id="Слой_3">
	<path class="st1" d="M392.4,204.7c0,0,51.3-10.7,51.3-51c0,0,8,51,50.3,51c0,0-50.8,10.7-50.8,51.3
		C443.3,256.7,433.8,204.7,392.4,204.7z"/>
	<path class="st1" d="M4.9,58.9c0,0,51.3-10.7,51.3-51c0,0,8,51,50.3,51c0,0-50.8,10.7-50.8,51.3C55.8,110.9,46.3,58.9,4.9,58.9z"/>
</g>
</svg>
