<?xml version="1.0" encoding="utf-8"?>
<!-- Generator: Adobe Illustrator 22.0.1, SVG Export Plug-In . SVG Version: 6.00 Build 0)  -->
<svg version="1.1" id="_x31__x2C_5" xmlns="http://www.w3.org/2000/svg" xmlns:xlink="http://www.w3.org/1999/xlink" x="0px"
	 y="0px" viewBox="0 0 512 512" style="enable-background:new 0 0 512 512;" xml:space="preserve">
<style type="text/css">
	.st0{fill:#49B462;}
	.st1{fill:#F8DB3D;}
</style>
<path class="st0" d="M101.3,512c-2.1,0-4.1-0.4-6.1-1.2c-6-2.5-9.9-8.3-9.9-14.8v-90.7H58.7C26.3,405.3,0,379,0,346.7v-288
	C0,26.3,26.3,0,58.7,0h394.7C485.7,0,512,26.3,512,58.7v288c0,32.4-26.3,58.7-58.7,58.7H214.6l-102,102
	C109.6,510.4,105.5,512,101.3,512L101.3,512z M58.7,32C44,32,32,44,32,58.7v288c0,14.7,12,26.7,26.7,26.7h42.7c8.8,0,16,7.2,16,16
	v68l79.4-79.4c3-3,7.1-4.7,11.3-4.7h245.3c14.7,0,26.7-12,26.7-26.7v-288C480,44,468,32,453.3,32L58.7,32z"/>
<path class="st1" d="M176,319.8h-10.7c-20.6,0-37.3-16.7-37.3-37.3v-96c0-20.6,16.7-37.3,37.3-37.3H176c20.6,0,37.3,16.7,37.3,37.3
	v96C213.3,303,196.6,319.8,176,319.8z M165.3,181.1c-2.9,0-5.3,2.4-5.3,5.3v96c0,2.9,2.4,5.3,5.3,5.3H176c2.9,0,5.3-2.4,5.3-5.3v-96
	c0-2.9-2.4-5.3-5.3-5.3H165.3z"/>
<path class="st1" d="M314.7,319.8h-10.9c-58.9,0-93.6-14.8-109.1-23.7c-7.7-4.4-10.3-14.2-6-21.8c4.4-7.7,14.1-10.4,21.8-6
	c10.2,5.8,39.8,19.5,93.2,19.5h10.9c12.5,0,23.7-9.1,25.6-20.7c0.1-0.6,0.2-1.2,0.4-1.8c1.5-6.6,10.9-53.7,11.3-60
	c0-13.1-11.1-24.2-24.8-24.2h-53.3c-5.9,0-11.3-3.3-14.1-8.5c-2.8-5.2-2.5-11.5,0.8-16.4c3.3-4.9,7.3-11.8,7.3-31
	c0-19.1-7.5-28.1-10.2-29.2c0.9,0.6-3,5.5-3,19.4c0,35.7-34.7,61.2-49.6,70.5c-7.5,4.7-17.4,2.4-22.1-5.1
	c-4.7-7.5-2.4-17.4,5.1-22.1c16.7-10.4,34.5-27.3,34.5-43.4c0-35.4,18.2-51.2,36.2-51.2c20.1,0,41,22.8,41,61
	c0,9.1-1.1,17.1-2.7,23.9h30c31.3,0,56.7,25.5,56.7,56.7c0,2,0,5.3-6.2,37.1c-2.6,13.6-4.4,22.9-6.2,29.2l0.2,0
	C367.4,299.3,342.8,319.8,314.7,319.8L314.7,319.8z"/>
</svg>
