<svg width="1922" height="1166" viewBox="0 0 1922 1166" fill="none" xmlns="http://www.w3.org/2000/svg">
<rect width="1922" height="270" transform="translate(0 896)" fill="white"/>
<path d="M0 896C0 896 210 1090 496 1116C782 1142 990 1106 1218 1068C1446 1030 1764 1068 1920 1162C1920 1166 1922 1166 1922 1166H0V896Z" fill="#FCF2D7"/>
<rect width="1922" height="270" fill="white"/>
<path d="M0 270C0 270 210 76 496 50C782 24 990 60 1218 98C1446 136 1764 98 1920 4C1920 0 1922 0 1922 0H0V270Z" fill="#F6E9C5"/>
<rect y="270" width="1922" height="626" fill="white"/>
</svg>
