<svg xmlns="http://www.w3.org/2000/svg" viewBox="0 0 512 512" fill="#49B462"><path d="M256 0C150.112 0 64 86.112 64 192c0 133.088 173.312 307.936 180.672 315.328a16.07 16.07 0 0022.656 0C274.688 499.936 448 325.088 448 192 448 86.112 361.888 0 256 0zm0 472.864C217.792 431.968 96 293.664 96 192c0-88.224 71.776-160 160-160s160 71.776 160 160c0 101.568-121.792 239.968-160 280.864z"/><path d="M256 96c-52.928 0-96 43.072-96 96s43.072 96 96 96 96-43.072 96-96-43.072-96-96-96zm0 160c-35.296 0-64-28.704-64-64s28.704-64 64-64 64 28.704 64 64-28.704 64-64 64z"/></svg>