<svg version="1.1" id="Capa_1" xmlns="http://www.w3.org/2000/svg" x="0" y="0" viewBox="0 0 512 512" xml:space="preserve"><style>.st1{fill:#f8db3d}</style><path d="M336 96c8.8 0 16-7.2 16-16V32c0-17.6-14.4-32-32-32H64C46.4 0 32 14.4 32 32v448c0 17.6 14.4 32 32 32h256c17.6 0 32-14.4 32-32v-80c0-8.8-7.2-16-16-16H64V96h272zM64 32h256v32H64V32zm256 384v64H64v-64h256z" fill="#49b462"/><path class="st1" d="M448 128H256c-17.6 0-32 14.4-32 32v128c0 17.6 14.4 32 32 32h32v16c0 5.5 2.9 10.7 7.6 13.6 2.6 1.6 5.5 2.4 8.4 2.4 2.5 0 4.9-.6 7.2-1.7l60.6-30.3H448c17.6 0 32-14.4 32-32V160c0-17.6-14.4-32-32-32zm0 160h-80c-2.5 0-4.9.6-7.2 1.7L320 310.1V304c0-8.8-7.2-16-16-16h-48V160h192v128z"/><path class="st1" d="M320.6 208h-.3c-8.8 0-15.8 7.2-15.8 16s7.3 16 16.2 16 16-7.2 16-16-7.2-16-16.1-16zm64 0h-.3c-8.8 0-15.8 7.2-15.8 16s7.3 16 16.2 16 16-7.2 16-16-7.2-16-16.1-16z"/></svg>