<svg fill="#49B462" viewBox="0 0 448 448" xmlns="http://www.w3.org/2000/svg"><path d="M418.72 318.72c-34.688-3.168-68.448-12-100.32-26.24-15.712-7.008-34.048-.64-41.728 14.592l-31.584 62.752c-70.848-37.6-129.34-96.096-166.94-166.91L140.9 171.33c15.2-7.648 21.632-25.984 14.592-41.728-14.24-31.872-23.072-65.6-26.208-100.29C127.748 12.608 114.148 0 97.604 0h-81.6c-8.832 0-16 7.168-16 16 0 65.152 14.208 127.97 42.208 186.78 42.528 88.384 114.62 160.48 203.07 203.01 58.752 28 121.57 42.208 186.72 42.208 8.832 0 16-7.168 16-16v-81.6c0-16.544-12.608-30.144-29.28-31.68zM32.32 32.03l65.056.16c3.488 38.208 13.216 75.392 29.12 110.53l-62.144 31.328C44.96 128.832 34.208 81.216 32.32 32.028zM416 415.68c-49.184-1.92-96.832-12.672-142.02-32l31.36-61.952c35.072 15.68 72.256 25.408 110.66 28.672v65.28z"/></svg>