<svg xmlns="http://www.w3.org/2000/svg" viewBox="0 0 512 512"><style>.st1{fill:#49b462}</style><g id="Слой_1"><path id="Shape_2_" class="st1" d="M70.6 283.3l-18.5-43.1c-3.9-8.9-12.3-15-22-16.1s-19.1 3.1-24.9 11-6.9 18.2-2.9 27l33.4 73.6c4.5 10 10.8 19 18.5 26.7l52.6 52.6c-3 3.1-4.6 7.3-4.6 11.6v68.3c0 9.4 7.6 17.1 17.1 17.1h93.9c9.4 0 17.1-7.6 17.1-17.1v-68.3c0-9.4-7.6-17.1-17.1-17.1v-15.9c.3-20.2-6.3-39.9-18.7-55.9-7.3-9.5-17.1-16.8-28.4-20.7-18-7.6-34.5-18.2-48.9-31.4-13.3-10.8-32.2-11.8-46.6-2.3zm142.6 211.6h-93.9v-68.3h93.9v68.3zm-32-146.4c9.9 13 15.2 28.9 15 45.2v15.9h-70.6l-59.2-59.2c-6.3-6.3-11.4-13.6-15.1-21.7l-33.4-73.6c-1.4-3.1-1.2-6.8.7-9.7 1.9-2.9 5.1-4.7 8.5-4.7 4.1 0 7.7 2.4 9.3 6.2l19.1 44.5c5.1 11.9 12.4 22.7 21.5 31.8l39 39c2.1 2.2 5.3 3.1 8.3 2.3 3-.8 5.3-3.1 6.1-6.1.8-3-.1-6.2-2.3-8.3l-39-39c-3.9-3.9-7.4-8.2-10.5-12.8 8.2-6.3 19.7-6.1 27.6.5 16 14.6 34.4 26.3 54.4 34.5 8.3 2.9 15.4 8.2 20.6 15.2z"/><path id="Shape_3_" class="st1" d="M187.6 452.3h-8.5c-4.7 0-8.5 3.8-8.5 8.5s3.8 8.5 8.5 8.5h8.5c4.7 0 8.5-3.8 8.5-8.5s-3.7-8.5-8.5-8.5z"/><path id="Shape_4_" class="st1" d="M476 335.7l33.4-73.6c4.1-8.9 3.1-19.4-2.7-27.3-5.8-8-15.4-12.2-25.1-11.1s-18.2 7.4-22 16.4l-18.4 43c-14.4-9.5-33.4-8.4-46.7 2.6-14.4 13.2-30.9 23.8-48.9 31.4-11.3 4-21.2 11.2-28.4 20.7-12.4 16-19 35.7-18.7 55.9v15.9c-9.4 0-17.1 7.6-17.1 17.1V495c0 9.4 7.6 17.1 17.1 17.1h93.9c9.4 0 17.1-7.6 17.1-17.1v-68.3c0-4.3-1.7-8.5-4.6-11.6l52.6-52.6c7.7-7.8 14-16.8 18.5-26.8zm-83.6 159.2h-93.9v-68.3h93.9v68.3zm-6.2-85.3h-70.6v-15.9c-.3-16.3 5-32.3 15-45.2 5.2-6.9 12.3-12.2 20.5-15.2 20.1-8.2 38.5-19.8 54.5-34.5 8-6.6 19.5-6.8 27.7-.5-3.1 4.6-6.6 9-10.6 12.9l-39 39c-3.2 3.3-3.2 8.7.1 12 3.3 3.3 8.6 3.3 12 .1l39-39c9.1-9.1 16.5-19.9 21.5-31.8l19.1-44.5c1.6-3.7 5.3-6.1 9.3-6.1 3.4 0 6.7 1.8 8.5 4.7s2.1 6.6.7 9.7l-33.4 73.6c-3.7 8.1-8.8 15.5-15.1 21.7l-59.2 59z"/><path id="Shape_5_" class="st1" d="M332.7 452.3h-8.5c-4.7 0-8.5 3.8-8.5 8.5s3.8 8.5 8.5 8.5h8.5c4.7 0 8.5-3.8 8.5-8.5s-3.8-8.5-8.5-8.5z"/><path class="st1" d="M256 318c-4.1 0-8-1.5-11.1-4.2-11.6-10.2-22.8-19.7-32.7-28.1h-.1c-29-24.7-54-46-71.4-67.1-19.5-23.5-28.5-45.8-28.5-70.1 0-23.6 8.1-45.5 22.8-61.4C149.9 70.9 170.3 62 192.5 62c16.6 0 31.8 5.3 45.2 15.6 6.8 5.2 12.9 11.6 18.3 19.1 5.4-7.5 11.5-13.9 18.3-19.1C287.7 67.3 302.9 62 319.5 62c22.2 0 42.7 8.9 57.6 25.1 14.7 16 22.8 37.8 22.8 61.4 0 24.3-9.1 46.6-28.5 70.1-17.4 21-42.4 42.3-71.4 67.1-9.9 8.4-21.1 18-32.8 28.2-3.2 2.6-7.1 4.1-11.2 4.1zM192.5 78.9c-17.5 0-33.5 7-45.2 19.6-11.8 12.8-18.4 30.6-18.4 50 0 20.5 7.6 38.8 24.7 59.3 16.5 19.9 41 40.8 69.4 65h.1c9.9 8.5 21.2 18 32.9 28.3 11.8-10.3 23-19.9 33-28.3 28.4-24.2 52.9-45.1 69.4-65 17.1-20.6 24.7-38.9 24.7-59.3 0-19.4-6.5-37.2-18.4-50C353 85.8 337 78.9 319.5 78.9c-12.8 0-24.5 4.1-34.9 12.1-9.2 7.1-15.7 16.2-19.5 22.5-1.9 3.3-5.4 5.2-9.1 5.2s-7.2-1.9-9.1-5.2c-3.8-6.3-10.2-15.4-19.5-22.5-10.4-8.1-22.1-12.1-34.9-12.1z"/><path d="M256 262.5c-2.1 0-4.2-.8-5.8-2.2-6.1-5.3-11.9-10.3-17.1-14.7h0c-15.1-12.9-28.2-24-37.3-35-10.2-12.3-14.9-23.9-14.9-36.6 0-12.3 4.2-23.7 11.9-32.1 7.8-8.4 18.5-13.1 30.1-13.1 8.7 0 16.6 2.7 23.6 8.2 3.5 2.7 6.7 6.1 9.5 10 2.8-3.9 6-7.2 9.5-10 7-5.4 14.9-8.2 23.6-8.2 11.6 0 22.3 4.6 30.1 13.1 7.7 8.3 11.9 19.7 11.9 32.1 0 12.7-4.7 24.3-14.9 36.6-9.1 11-22.2 22.1-37.3 35-5.2 4.4-11 9.4-17.1 14.7-1.6 1.4-3.7 2.2-5.8 2.2zm-33.2-124.9c-9.1 0-17.5 3.6-23.6 10.2-6.2 6.7-9.6 16-9.6 26.1 0 10.7 4 20.2 12.9 31 8.6 10.4 21.4 21.3 36.2 33.9h0c5.2 4.4 11.1 9.4 17.2 14.8 6.2-5.4 12-10.4 17.2-14.8 14.8-12.6 27.6-23.5 36.2-33.9 8.9-10.7 12.9-20.3 12.9-31 0-10.1-3.4-19.4-9.6-26.1-6.1-6.6-14.5-10.2-23.6-10.2-6.7 0-12.8 2.1-18.2 6.3-4.8 3.7-8.2 8.5-10.2 11.8-1 1.7-2.8 2.7-4.8 2.7s-3.8-1-4.8-2.7c-2-3.3-5.3-8-10.2-11.8-5.1-4.2-11.3-6.3-18-6.3z" fill="#f8db3d" stroke="#f8db3d" stroke-width="8" stroke-miterlimit="10"/></g><path d="M371.4 51s51.3-10.7 51.3-51c0 0 8 51 50.3 51 0 0-50.8 10.7-50.8 51.3.1.7-9.4-51.3-50.8-51.3zM17 119.6s45.2 26.5 72.3-3.4c0 0-28.3 43.2 3.1 71.6 0 0-44.9-26.2-72.1 4-.5.5 27.4-44.5-3.3-72.2z" fill="#f8db3d" id="Слой_3"/></svg>