<svg xmlns="http://www.w3.org/2000/svg" viewBox="0 0 512 512"><style>.st0{fill:#49b462}.st1{fill:#f8db3d}</style><g id="Слой_1"><path id="Shape" class="st0" d="M387.3 56.7l-128-56c-2.2-.9-4.7-.9-6.8 0l-128 56c-3.1 1.4-5.1 4.4-5.1 7.8v134c0 30.1 14.5 58.4 38.9 76l88.5 63.8c5.5 4 12.8 4 18.3 0l88.5-63.8c24.4-17.6 38.9-45.9 38.9-76v-134c-.1-3.3-2.1-6.4-5.2-7.8zm-11.9 141.8c0 24.6-11.9 47.7-31.8 62.2L256 323.9l-87.6-63.2c-20-14.4-31.8-37.5-31.8-62.2V70.1l119.5-52.3 119.5 52.3v128.4z"/><path id="Shape_1_" class="st1" d="M252.5 38l-93.9 41.1c-3.1 1.4-5.1 4.4-5.1 7.8v111.7c0 19.1 9.2 37.1 24.7 48.3l72.7 52.4c3 2.1 7 2.1 10 0l72.7-52.4c15.5-11.2 24.7-29.2 24.7-48.3V86.9c0-3.4-2-6.5-5.1-7.8L259.3 38c-2.2-1-4.6-1-6.8 0zm88.7 54.5v106.1c0 13.7-6.6 26.5-17.7 34.5l-67.7 48.8-67.6-48.9c-11.1-8-17.6-20.8-17.7-34.5v-106l85.3-37.4 85.4 37.4z"/><path id="Shape_2_" class="st0" d="M70.6 283.3l-18.5-43.1c-3.9-8.9-12.3-15-22-16.1s-19.1 3.1-24.9 11-6.9 18.2-2.9 27l33.4 73.6c4.5 10 10.8 19 18.5 26.7l52.6 52.6c-3 3.1-4.6 7.3-4.6 11.6v68.3c0 9.4 7.6 17.1 17.1 17.1h93.9c9.4 0 17.1-7.6 17.1-17.1v-68.3c0-9.4-7.6-17.1-17.1-17.1v-15.9c.3-20.2-6.3-39.9-18.7-55.9-7.3-9.5-17.1-16.8-28.4-20.7-18-7.6-34.5-18.2-48.9-31.4-13.3-10.8-32.2-11.8-46.6-2.3zm142.6 211.6h-93.9v-68.3h93.9v68.3zm-32-146.4c9.9 13 15.2 28.9 15 45.2v15.9h-70.6l-59.2-59.2c-6.3-6.3-11.4-13.6-15.1-21.7l-33.4-73.6c-1.4-3.1-1.2-6.8.7-9.7 1.9-2.9 5.1-4.7 8.5-4.7 4.1 0 7.7 2.4 9.3 6.2l19.1 44.5c5.1 11.9 12.4 22.7 21.5 31.8l39 39c2.1 2.2 5.3 3.1 8.3 2.3 3-.8 5.3-3.1 6.1-6.1.8-3-.1-6.2-2.3-8.3l-39-39c-3.9-3.9-7.4-8.2-10.5-12.8 8.2-6.3 19.7-6.1 27.6.5 16 14.6 34.4 26.3 54.4 34.5 8.3 2.9 15.4 8.2 20.6 15.2z"/><path id="Shape_3_" class="st0" d="M187.6 452.3h-8.5c-4.7 0-8.5 3.8-8.5 8.5s3.8 8.5 8.5 8.5h8.5c4.7 0 8.5-3.8 8.5-8.5s-3.7-8.5-8.5-8.5z"/><path id="Shape_4_" class="st0" d="M476 335.7l33.4-73.6c4.1-8.9 3.1-19.4-2.7-27.3-5.8-8-15.4-12.2-25.1-11.1s-18.2 7.4-22 16.4l-18.4 43c-14.4-9.5-33.4-8.4-46.7 2.6-14.4 13.2-30.9 23.8-48.9 31.4-11.3 4-21.2 11.2-28.4 20.7-12.4 16-19 35.7-18.7 55.9v15.9c-9.4 0-17.1 7.6-17.1 17.1V495c0 9.4 7.6 17.1 17.1 17.1h93.9c9.4 0 17.1-7.6 17.1-17.1v-68.3c0-4.3-1.7-8.5-4.6-11.6l52.6-52.6c7.7-7.8 14-16.8 18.5-26.8zm-83.6 159.2h-93.9v-68.3h93.9v68.3zm-6.2-85.3h-70.6v-15.9c-.3-16.3 5-32.3 15-45.2 5.2-6.9 12.3-12.2 20.5-15.2 20.1-8.2 38.5-19.8 54.5-34.5 8-6.6 19.5-6.8 27.7-.5-3.1 4.6-6.6 9-10.6 12.9l-39 39c-3.2 3.3-3.2 8.7.1 12 3.3 3.3 8.6 3.3 12 .1l39-39c9.1-9.1 16.5-19.9 21.5-31.8l19.1-44.5c1.6-3.7 5.3-6.1 9.3-6.1 3.4 0 6.7 1.8 8.5 4.7s2.1 6.6.7 9.7l-33.4 73.6c-3.7 8.1-8.8 15.5-15.1 21.7l-59.2 59z"/><path id="Shape_5_" class="st0" d="M332.7 452.3h-8.5c-4.7 0-8.5 3.8-8.5 8.5s3.8 8.5 8.5 8.5h8.5c4.7 0 8.5-3.8 8.5-8.5s-3.8-8.5-8.5-8.5z"/></g><path class="st1" d="M392.4 204.7s51.3-10.7 51.3-51c0 0 8 51 50.3 51 0 0-50.8 10.7-50.8 51.3.1.7-9.4-51.3-50.8-51.3zM4.9 58.9s51.3-10.7 51.3-51c0 0 8 51 50.3 51 0 0-50.8 10.7-50.8 51.3.1.7-9.4-51.3-50.8-51.3z" id="Слой_3"/></svg>